<svg xmlns="http://www.w3.org/2000/svg" viewBox="0 0 100 100">
  <rect width="100" height="100" rx="20" fill="#2c1a0e"/>
  <path d="M50 20c-5.5 0-10 4.5-10 10s4.5 10 10 10 10-4.5 10-10-4.5-10-10-10zm0 4c3.3 0 6 2.7 6 6s-2.7 6-6 6-6-2.7-6-6 2.7-6 6-6zm-15 46c0-8.3 6.7-15 15-15s15 6.7 15 15-6.7 15-15 15-15-6.7-15-15zm4 0c0 6.1 4.9 11 11 11s11-4.9 11-11-4.9-11-11-11-11 4.9-11 11zm11-48c-4.4 0-8 3.6-8 8s3.6 8 8 8 8-3.6 8-8-3.6-8-8-8zm0 2c3.3 0 6 2.7 6 6s-2.7 6-6 6-6-2.7-6-6 2.7-6 6-6zm25 46c0-13.8-11.2-25-25-25s-25 11.2-25 25 11.2 25 25 25 25-11.2 25-25zm-2.5 0c0 12.4-10.1 22.5-22.5 22.5S27.5 82.4 27.5 70 37.6 47.5 50 47.5 72.5 57.6 72.5 70z" fill="#c8922a"/>
  <!-- Symbolic representation of Om/Shiva elements -->
  <path d="M45 35 Q50 30 55 35" stroke="#c8922a" stroke-width="2" fill="none"/>
  <circle cx="50" cy="28" r="2" fill="#c8922a"/>
</svg>
